<svg viewBox="0 0 20 24" fill="none" xmlns="http://www.w3.org/2000/svg">
<path d="M19.753 21.7165C20.0743 21.3945 20.0736 20.9245 19.8006 20.5292C13.8843 12.8829 13.8069 10.9042 19.7614 3.44948C20.0703 3.06558 20.0447 2.57091 19.7224 2.2499C19.4001 1.92883 18.9173 1.9172 18.5216 2.21469C11.0795 8.18754 9.09885 8.11644 1.42764 2.22914C1.03116 1.95761 0.573182 1.9707 0.25187 2.29277C-0.0694699 2.61485 -0.0811068 3.07247 0.204209 3.45539C6.12045 11.1017 6.18547 13.0928 0.243298 20.5351C-0.0654821 20.9437 -0.052326 21.426 0.270044 21.7471C0.592333 22.0681 1.08747 22.0921 1.48303 21.7699C9.03692 15.9577 10.8689 15.9301 18.5771 21.7555C18.9613 22.0394 19.4316 22.0386 19.753 21.7165Z" fill="#BBAA80"/>
</svg>
