<svg viewBox="0 0 28 28" fill="none" xmlns="http://www.w3.org/2000/svg">
<rect width="28" height="28" rx="14" fill="#8C7A5B"/>
<path fill-rule="evenodd" clip-rule="evenodd" d="M14.1832 9.81184C14.3004 9.69467 14.4593 9.62885 14.6251 9.62885C14.7908 9.62885 14.9497 9.69467 15.067 9.81184L18.817 13.5619C18.9342 13.6791 19 13.838 19 14.0038C19 14.1695 18.9342 14.3284 18.817 14.4457L15.067 18.1957C14.9491 18.3096 14.7912 18.3726 14.6273 18.3711C14.4634 18.3697 14.3067 18.304 14.1908 18.1881C14.0749 18.0722 14.0092 17.9154 14.0078 17.7516C14.0063 17.5877 14.0693 17.4298 14.1832 17.3119L16.8664 14.6288L9.62501 14.6288C9.45925 14.6288 9.30027 14.5629 9.18306 14.4457C9.06585 14.3285 9 14.1695 9 14.0038C9 13.838 9.06585 13.679 9.18306 13.5618C9.30027 13.4446 9.45925 13.3788 9.62501 13.3788L16.8664 13.3788L14.1832 10.6956C14.066 10.5784 14.0002 10.4195 14.0002 10.2537C14.0002 10.088 14.066 9.92905 14.1832 9.81184Z" fill="#FDF9ED"/>
</svg>
