<svg viewBox="0 0 18 19" fill="none" xmlns="http://www.w3.org/2000/svg">
<path d="M17.7777 18.7307C18.0669 18.4248 18.0662 17.9783 17.8205 17.6028C12.4958 10.3387 12.4262 8.45896 17.7852 1.37701C18.0632 1.0123 18.0402 0.542368 17.7502 0.237402C17.4601 -0.0676153 17.0256 -0.0786613 16.6695 0.203955C9.97151 5.87816 8.18897 5.81062 1.28487 0.217678C0.928042 -0.0402705 0.515864 -0.0278338 0.226683 0.278136C-0.0625229 0.584106 -0.0729961 1.01884 0.183788 1.38262C5.50841 8.64662 5.56693 10.5381 0.218968 17.6084C-0.0589339 17.9965 -0.0470934 18.4547 0.24304 18.7597C0.5331 19.0647 0.978725 19.0875 1.33473 18.7814C8.13323 13.2598 9.78196 13.2336 16.7194 18.7677C17.0652 19.0374 17.4885 19.0367 17.7777 18.7307Z" fill="#E9B638"/>
</svg>
