<svg xmlns="http://www.w3.org/2000/svg" viewBox="204 203 191 192" fill="none">
  <path d="M378.394 381.551C381.022 378.803 381.016 374.792 378.784 371.419C330.402 306.172 329.769 289.287 378.463 225.675C380.989 222.399 380.78 218.178 378.144 215.439C375.508 212.699 371.56 212.6 368.325 215.138C307.465 266.105 291.269 265.499 228.536 215.261C225.294 212.944 221.549 213.056 218.921 215.804C216.294 218.553 216.198 222.458 218.532 225.725C266.912 290.973 267.444 307.963 218.851 371.47C216.326 374.956 216.434 379.072 219.07 381.811C221.706 384.551 225.755 384.755 228.989 382.006C290.762 332.409 305.743 332.174 368.779 381.883C371.92 384.305 375.766 384.299 378.394 381.551Z" fill="#E9B638"/>
</svg>
