<svg viewBox="0 0 19 20" fill="none" xmlns="http://www.w3.org/2000/svg">
<path d="M18.7653 19.7165C19.0706 19.3945 19.0699 18.9245 18.8106 18.5292C13.1901 10.8829 13.1166 8.90417 18.7733 1.44948C19.0668 1.06558 19.0425 0.570913 18.7363 0.249897C18.4301 -0.071174 17.9714 -0.0828014 17.5956 0.214689C10.5255 6.18754 8.64391 6.11644 1.35626 0.229135C0.9796 -0.04239 0.544523 -0.0292987 0.239276 0.292775C-0.0659964 0.614848 -0.0770514 1.07247 0.193998 1.45539C5.81443 9.1017 5.8762 11.0928 0.231133 18.5351C-0.062208 18.9437 -0.0497097 19.426 0.256542 19.7471C0.562717 20.0681 1.0331 20.0921 1.40888 19.7699C8.58508 13.9577 10.3254 13.9301 17.6483 19.7555C18.0132 20.0394 18.46 20.0386 18.7653 19.7165Z" fill="#E9B638"/>
</svg>
